<?xml version="1.0" encoding="utf-8"?>
<!-- Generator: Adobe Illustrator 16.0.0, SVG Export Plug-In . SVG Version: 6.00 Build 0)  -->
<!DOCTYPE svg PUBLIC "-//W3C//DTD SVG 1.1//EN" "http://www.w3.org/Graphics/SVG/1.1/DTD/svg11.dtd">
<svg version="1.1" id="Capa_1" xmlns="http://www.w3.org/2000/svg" xmlns:xlink="http://www.w3.org/1999/xlink" x="0px" y="0px"
	 width="792px" height="612px" viewBox="0 0 792 612" enable-background="new 0 0 792 612" xml:space="preserve">
<g>
	<path fill="#FFFFFF" d="M587.842,353.826c-21.46-24.724-51.119-40.885-83.524-45.518l-74.393-11.665V166.816
		c0-30.83-25.085-55.912-55.915-55.912h-0.837c-30.83,0-55.914,25.082-55.914,55.912v208.5l-76.908-32.96
		c-15.448-6.62-33.057-5.053-47.094,4.205c-14.035,9.254-22.413,24.817-22.413,41.628v0.702c0,14.227,6.098,27.81,16.729,37.262
		l129.687,115.321v56.027c0,8.007,6.488,14.495,14.495,14.495c8.007,0,14.495-6.488,14.495-14.495v-62.534
		c0-4.14-1.771-8.083-4.865-10.831l-134.55-119.645c-4.451-3.958-7.002-9.643-7.002-15.599v-0.702
		c0-7.141,3.421-13.494,9.381-17.427c5.966-3.933,13.156-4.572,19.715-1.761l97.098,41.614c0.893,0.385,1.832,0.687,2.808,0.886
		c1.451,0.3,2.917,0.365,4.349,0.22c0.162-0.015,0.321-0.046,0.481-0.067c0.3-0.04,0.601-0.079,0.897-0.137
		c0.259-0.051,0.512-0.122,0.765-0.186c0.193-0.051,0.387-0.091,0.578-0.149c0.288-0.085,0.568-0.189,0.848-0.293
		c0.155-0.057,0.313-0.108,0.466-0.171c0.274-0.111,0.542-0.239,0.806-0.367c0.156-0.075,0.317-0.145,0.47-0.226
		c0.237-0.126,0.466-0.265,0.695-0.402c0.176-0.106,0.356-0.207,0.528-0.32c0.193-0.128,0.375-0.268,0.563-0.402
		c0.197-0.145,0.396-0.284,0.587-0.438c0.153-0.124,0.296-0.259,0.444-0.389c0.205-0.182,0.414-0.361,0.609-0.555
		c0.131-0.13,0.253-0.269,0.379-0.402c0.193-0.204,0.387-0.405,0.566-0.624c0.139-0.166,0.263-0.342,0.394-0.512
		c0.151-0.197,0.304-0.389,0.445-0.594c0.178-0.261,0.338-0.531,0.499-0.804c0.077-0.13,0.16-0.252,0.234-0.383
		c0.696-1.26,1.213-2.633,1.511-4.086c0.201-0.972,0.294-1.952,0.294-2.922V166.816c0-14.845,12.077-26.922,26.924-26.922h0.837
		c14.847,0,26.924,12.077,26.924,26.922v139.201c0,0.536,0.035,1.065,0.092,1.585c-0.766,7.602,4.52,14.563,12.158,15.76
		l86.739,13.6c0.069,0.012,0.137,0.021,0.206,0.033c52.469,7.454,92.037,53.04,92.037,106.039v1.479
		c0,24.526-5.986,48.992-17.31,70.748l-39.32,75.545c-3.697,7.103-0.936,15.854,6.163,19.549c2.138,1.113,4.426,1.644,6.682,1.644
		c5.231,0,10.285-2.846,12.867-7.807l39.32-75.545c13.47-25.874,20.586-54.965,20.586-84.134v-1.479
		C621.156,410.26,609.324,378.579,587.842,353.826z"/>
	<path fill="#FFFFFF" d="M373.592,73.036c8.007,0,14.495-6.488,14.495-14.495V14.495C388.087,6.488,381.6,0,373.592,0
		c-8.007,0-14.495,6.487-14.495,14.495v44.046C359.097,66.548,365.587,73.036,373.592,73.036z"/>
	<path fill="#FFFFFF" d="M463.373,191.137c0,8.007,6.488,14.495,14.495,14.495h44.046c8.008,0,14.495-6.488,14.495-14.495
		c0-8.008-6.487-14.495-14.495-14.495h-44.046C469.863,176.642,463.373,183.131,463.373,191.137z"/>
	<path fill="#FFFFFF" d="M466.379,109.135c3.709,0,7.419-1.415,10.251-4.244l31.146-31.146c5.66-5.663,5.66-14.839,0-20.5
		c-5.663-5.659-14.84-5.659-20.5,0l-31.147,31.144c-5.661,5.662-5.661,14.839,0,20.5
		C458.959,107.718,462.67,109.135,466.379,109.135z"/>
	<path fill="#FFFFFF" d="M259.15,104.889c2.832,2.829,6.542,4.244,10.251,4.244s7.419-1.415,10.251-4.244
		c5.661-5.663,5.661-14.84,0-20.5l-31.147-31.146c-5.663-5.659-14.839-5.659-20.5,0c-5.661,5.663-5.661,14.839,0,20.5
		L259.15,104.889z"/>
	<path fill="#FFFFFF" d="M214.501,205.632h44.046c8.007,0,14.495-6.488,14.495-14.495c0-8.008-6.488-14.495-14.495-14.495h-44.046
		c-8.007,0-14.495,6.487-14.495,14.495C200.006,199.144,206.495,205.632,214.501,205.632z"/>
</g>
</svg>
