<?xml version="1.0" encoding="utf-8"?>
<!-- Generator: Adobe Illustrator 16.0.0, SVG Export Plug-In . SVG Version: 6.00 Build 0)  -->
<!DOCTYPE svg PUBLIC "-//W3C//DTD SVG 1.1//EN" "http://www.w3.org/Graphics/SVG/1.1/DTD/svg11.dtd">
<svg version="1.1" id="Capa_1" xmlns="http://www.w3.org/2000/svg" xmlns:xlink="http://www.w3.org/1999/xlink" x="0px" y="0px"
	 width="792px" height="612px" viewBox="0 0 792 612" enable-background="new 0 0 792 612" xml:space="preserve">
<g>
	<g>
		<path fill="#FFFFFF" d="M660.542,69.644c-3.346-15.175-16.021-27.141-31.389-29.548c-1.989-0.313-4.004-0.468-6.018-0.468
			c-16.493,0-31.55,10.964-36.542,26.704c-5.017,15.814,0.97,33.488,14.545,43.013c13.562,9.514,32.345,9.067,45.444-1.067
			C658.224,99.273,663.708,84.004,660.542,69.644z M637.334,92.152c-5.542,5.541-14.044,7.34-21.365,4.555
			c-8.032-3.056-13.297-11.151-12.887-19.729c0.428-8.963,7.037-16.78,15.823-18.656c8.547-1.822,17.518,2.221,21.771,9.862
			C644.986,75.927,643.597,85.889,637.334,92.152z"/>
	</g>
</g>
<g>
	<g>
		<path fill="#FFFFFF" d="M701.086,215.3l-6.883-199.605c-0.165-4.793-4.013-8.641-8.805-8.806L485.792,0.006
			c-2.525-0.092-4.979,0.878-6.77,2.667l-24.649,24.649l-21.808-10.655c-2.175-1.063-4.686-1.218-6.971-0.43L106.978,125.692
			c-4.695,1.614-7.282,6.892-5.666,11.596l62.16,180.939l-69.891,69.891c-3.564,3.564-3.564,9.343,0,12.905L300.07,607.511
			c3.515,3.516,9.389,3.516,12.904,0l69.106-69.105l143.15,72.63c4.437,2.25,10.02,0.418,12.268-4.01l93.473-184.233
			c2.281-4.494,0.484-9.986-4.009-12.268c-4.494-2.279-9.987-0.483-12.268,4.01L525.349,590.63l-129.692-65.802l252.578-252.575
			l15.143,46.332l-28.986,57.131c-2.104,4.149-0.663,9.365,3.271,11.849c4.488,2.831,10.609,1.134,13.006-3.59l30.697-60.502
			c1.095-2.159,1.288-4.664,0.535-6.965l-19.193-58.726l35.714-35.714C700.208,220.28,701.174,217.827,701.086,215.3z
			 M121.54,139.988l306.412-105.26l12.776,6.243L177.836,303.863L121.54,139.988z M306.521,588.154L112.939,394.57L489.127,18.384
			l187.13,6.452l6.453,187.13L306.521,588.154z"/>
	</g>
</g>
<g>
	<g>
		<path fill="#FFFFFF" d="M543.11,259.529c-3.64-3.457-9.482-3.081-13.031,0.468l-43.373,43.272l-96.79-96.791
			c-3.564-3.563-9.343-3.563-12.906,0c-3.564,3.564-3.564,9.343,0,12.905l103.243,103.243c3.517,3.517,9.389,3.516,12.905,0
			l50.127-50.023C546.903,268.981,546.848,263.075,543.11,259.529z"/>
	</g>
</g>
<g>
	<g>
		<path fill="#FFFFFF" d="M468.941,334.41L322.68,274.183c-7.343-3.023-14.937,4.568-11.914,11.914l60.226,146.262
			c1.993,4.84,7.846,7.029,12.533,4.681c4.215-2.11,6.137-7.273,4.344-11.629l-27.797-67.507l34.414-34.414l67.507,27.797
			c4.6,1.895,10.021-0.363,11.913-4.964C475.798,341.724,473.539,336.302,468.941,334.41z M352.544,339.62l-16.562-40.223
			l40.222,16.563L352.544,339.62z"/>
	</g>
</g>
<g>
	<g>
		<path fill="#FFFFFF" d="M360.572,482.546l-11.403-11.403c11.711-17.707,9.777-41.846-5.805-57.425
			c-8.618-8.618-20.076-13.364-32.263-13.364c-12.188,0-23.646,4.746-32.264,13.364l-8.603,8.604
			c-10.674,10.673-28.042,10.673-38.718,0c-10.673-10.673-10.673-28.042,0-38.718l8.601-8.599c0.001-0.001,0.003-0.002,0.005-0.004
			c0.001-0.001,0.002-0.003,0.003-0.005l25.807-25.807c3.564-3.564,3.564-9.342,0-12.904c-3.564-3.565-9.342-3.564-12.904,0
			l-19.358,19.358l-10.754-10.755c-3.564-3.564-9.343-3.564-12.905,0c-3.564,3.564-3.564,9.343,0,12.905l10.754,10.754l-2.152,2.151
			c-17.79,17.79-17.79,46.738,0,64.528c17.79,17.789,46.738,17.789,64.529,0l8.603-8.604c10.674-10.673,28.041-10.674,38.717,0
			c10.672,10.673,10.673,28.039,0.002,38.713c-0.001,0.001-0.002,0.002-0.003,0.002c-0.002,0.003-0.004,0.004-0.006,0.007
			l-34.409,34.408c-3.323,3.321-3.543,8.811-0.485,12.381c3.413,3.985,9.678,4.234,13.39,0.523l27.962-27.962l10.754,10.754
			c3.711,3.713,9.979,3.462,13.39-0.523C364.116,491.357,363.895,485.868,360.572,482.546z"/>
	</g>
</g>
<g>
	<g>
		<path fill="#FFFFFF" d="M614.127,193.838c-3.564-3.564-9.346-3.564-12.907-0.002l-25.813,25.811
			c-10.672,10.673-28.042,10.673-38.714,0l-19.358-19.357l36.565-36.566c3.564-3.564,3.564-9.343,0-12.904
			c-3.565-3.564-9.342-3.564-12.905,0l-36.566,36.564l-19.356-19.356c-10.552-10.554-10.555-28.164,0-38.718l25.811-25.811
			c3.564-3.564,3.564-9.343,0-12.904c-3.564-3.564-9.343-3.564-12.906,0l-25.812,25.811c-13.434,13.433-17.157,34.436-9.066,51.654
			c2.245,4.776,5.335,9.142,9.065,12.873l51.623,51.622c13.376,13.376,34.244,17.063,51.418,9.151
			c4.868-2.243,9.319-5.361,13.108-9.151l25.812-25.811C617.691,203.179,617.691,197.403,614.127,193.838z"/>
	</g>
</g>
</svg>
