<?xml version="1.0" encoding="utf-8"?>
<!-- Generator: Adobe Illustrator 16.0.0, SVG Export Plug-In . SVG Version: 6.00 Build 0)  -->
<!DOCTYPE svg PUBLIC "-//W3C//DTD SVG 1.1//EN" "http://www.w3.org/Graphics/SVG/1.1/DTD/svg11.dtd">
<svg version="1.1" id="Layer_1" xmlns="http://www.w3.org/2000/svg" xmlns:xlink="http://www.w3.org/1999/xlink" x="0px" y="0px"
	 width="512px" height="512px" viewBox="0 0 512 512" enable-background="new 0 0 512 512" xml:space="preserve">
<path fill="#FFFFFF" d="M126.2,343.973c0-5.035,4.301-8.078,11.855-8.078c8.813,0,11.227,3.984,14.477,3.984
	c3.777,0,5.457-4.824,5.457-7.238c0-6.926-13.746-8.395-19.934-8.395c-12.066,0-25.496,5.352-25.496,20.984
	c0,24.867,33.68,20.039,33.68,35.777c0,6.297-5.457,9.129-11.75,9.129c-10.703,0-13.535-8.078-17.836-8.078
	c-3.254,0-5.98,4.406-5.98,7.344c0,6.086,10.492,13.008,24.234,13.008c14.48,0,24.973-7.762,24.973-22.766
	C159.879,352.473,126.2,356.981,126.2,343.973z"/>
<path fill="#FFFFFF" d="M187.68,343.973c0-5.035,4.301-8.078,11.855-8.078c8.813,0,11.227,3.984,14.477,3.984
	c3.777,0,5.457-4.824,5.457-7.238c0-6.926-13.746-8.395-19.934-8.395c-12.066,0-25.496,5.352-25.496,20.984
	c0,24.867,33.68,20.039,33.68,35.777c0,6.297-5.457,9.129-11.75,9.129c-10.703,0-13.535-8.078-17.836-8.078
	c-3.254,0-5.98,4.406-5.98,7.344c0,6.086,10.492,13.008,24.234,13.008c14.48,0,24.973-7.762,24.973-22.766
	C221.36,352.473,187.68,356.981,187.68,343.973z"/>
<path fill="#FFFFFF" d="M276.648,389.508h-25.601v-60.539c0-2.938-3.461-4.195-6.82-4.195c-3.461,0-6.82,1.258-6.82,4.195v68.195
	c0,2.836,2.938,4.305,5.98,4.305h33.261c2.727,0,4.09-3.043,4.09-5.98C280.738,392.446,279.375,389.508,276.648,389.508z"/>
<path fill="#FFFFFF" d="M360.227,223.406h-10.125v-65.469C350.102,70.852,279.254,0,192.165,0
	C105.079,0,34.227,70.852,34.227,157.938v65.469H24.106C10.813,223.406,0,234.219,0,247.508v240.391
	C0,501.188,10.813,512,24.106,512h336.121c13.289,0,24.105-10.813,24.105-24.102V247.508
	C384.332,234.219,373.516,223.406,360.227,223.406z M369.332,354.176h-31.355v-28.168h31.355V354.176z M337.977,369.176h31.355
	v28.172h-31.355V369.176z M49.227,157.938C49.227,79.121,113.348,15,192.165,15c78.816,0,142.937,64.121,142.937,142.938v65.469
	H306.59v-65.469c0-63.094-51.332-114.422-114.425-114.422c-63.09,0-114.422,51.328-114.422,114.422v65.469H49.227V157.938z
	 M291.59,223.406H92.743v-65.469c0-54.82,44.602-99.422,99.422-99.422c54.824,0,99.425,44.602,99.425,99.422V223.406z M15,369.176
	h31.352v28.172H15V369.176z M46.352,354.176H15v-28.168h31.352V354.176z M360.227,497H24.106c-5.02,0-9.105-4.086-9.105-9.105
	v-75.551h31.352v11.793c0,8.73,7.105,15.836,15.836,15.836H251.25c4.145,0,7.5-3.355,7.5-7.5s-3.355-7.5-7.5-7.5H62.188
	c-0.461,0-0.836-0.375-0.836-0.836V304.051c0-0.461,0.375-0.836,0.836-0.836h35.977c4.141,0,7.5-3.355,7.5-7.5s-3.359-7.5-7.5-7.5
	H62.188c-8.73,0-15.836,7.105-15.836,15.836v6.957H15v-63.5c0-5.02,4.086-9.102,9.105-9.102h336.121c5.02,0,9.105,4.082,9.105,9.102
	v63.5h-31.355v-6.957c0-8.73-7.102-15.836-15.836-15.836H133.079c-4.141,0-7.5,3.355-7.5,7.5s3.359,7.5,7.5,7.5h189.062
	c0.461,0,0.836,0.375,0.836,0.836v120.09c0,0.457-0.375,0.832-0.836,0.832h-35.023c-4.141,0-7.5,3.359-7.5,7.5
	c0,4.145,3.359,7.5,7.5,7.5h35.023c8.734,0,15.836-7.102,15.836-15.832v-11.793h31.355v75.551
	C369.332,492.914,365.246,497,360.227,497z"/>
</svg>
