<?xml version="1.0" encoding="utf-8"?>
<!-- Generator: Adobe Illustrator 16.0.0, SVG Export Plug-In . SVG Version: 6.00 Build 0)  -->
<!DOCTYPE svg PUBLIC "-//W3C//DTD SVG 1.1//EN" "http://www.w3.org/Graphics/SVG/1.1/DTD/svg11.dtd">
<svg version="1.1" id="Layer_1" xmlns="http://www.w3.org/2000/svg" xmlns:xlink="http://www.w3.org/1999/xlink" x="0px" y="0px"
	 width="480px" height="480px" viewBox="0 0 480 480" enable-background="new 0 0 480 480" xml:space="preserve">
<path fill="#FFFFFF" d="M344,282.895V224c-0.039-30.91-25.09-55.961-56-56h-39.602c2.531-5.09,4.449-10.461,5.723-16H256
	c13.254,0,24-10.746,24-24c-0.066-13.227-10.773-23.934-24-24V80c4.418,0,8-3.582,8-8c-0.043-39.746-32.254-71.957-72-72h-16
	c-36.645,0.051-67.422,27.586-71.527,64H80c-4.418,0-8,3.582-8,8s3.582,8,8,8h32v24c-13.227,0.066-23.934,10.773-24,24
	c0,13.254,10.746,24,24,24h1.879c1.273,5.539,3.195,10.91,5.723,16H80c-30.91,0.039-55.961,25.09-56,56v58.879
	C8.328,305.539-0.043,332.449,0,360v112c0,4.418,3.582,8,8,8h352c4.418,0,8-3.582,8-8V360
	C368.043,332.453,359.668,305.551,344,282.895z M352,432h-56v-89.375c0.016-6.367-2.516-12.477-7.031-16.969l-0.57-0.566
	c-10.531-10.48-16.438-24.738-16.398-39.594v-38.488c48.008,16.781,80.121,62.133,80,112.992V432z M88,385.399l33.977-32.797
	c14.031-13.59,21.973-32.27,22.023-51.801V240h8v24c0,17.672,14.328,32,32,32s32-14.328,32-32v-24h8v60.801
	c0.043,19.539,7.988,38.23,22.023,51.824L280,385.399V464H88V385.399z M112,285.496v-43.016l0.754-0.168
	c1.484-0.297,2.98-0.52,4.477-0.762c1.066-0.168,2.129-0.367,3.203-0.512c1.863-0.246,3.727-0.406,5.598-0.566
	c0.664-0.059,1.32-0.145,1.977-0.184v60.512c-0.031,15.199-6.211,29.742-17.137,40.313L88,363.199v-20.574
	c0-2.121,0.844-4.156,2.344-5.656l0.57-0.57C104.461,322.93,112.055,304.602,112,285.496z M157.512,80
	c-6.773,9.527-17.555,15.402-29.23,15.93H128V80H157.512z M238.527,80c-3.379,9.555-12.395,15.957-22.527,16h-7.84
	c-11.832-0.441-22.785-6.355-29.648-16H238.527z M128,112v-0.063h0.426c15.301-0.504,29.676-7.457,39.574-19.137
	c10.031,11.84,24.645,18.824,40.16,19.199H216c8.684-0.031,17.117-2.914,24-8.207V136c-0.02,12.723-4.363,25.063-12.32,34.992
	c-12.945,16.297-33.902,24.012-54.328,20c-1.758-0.336-3.508-0.758-5.238-1.266c-1.715-0.504-3.41-1.078-5.082-1.75
	c-8.883-3.641-16.699-9.477-22.711-16.961c-7.961-9.934-12.305-22.285-12.32-35.016V112z M168,232v-25.801
	c0.336,0.082,0.672,0.105,1.008,0.176c1.719,0.359,3.449,0.641,5.191,0.871c0.754,0.105,1.496,0.25,2.25,0.328
	c0.598,0.066,1.191,0.105,1.789,0.152c0.602,0.051,1.043,0,1.602,0.074c1.398,0.078,2.793,0.199,4.199,0.199
	c1.602,0,3.242-0.121,4.855-0.23c0.371,0,0.738,0,1.105-0.059c0.527,0,1.055-0.078,1.602-0.137c0.797-0.078,1.527-0.223,2.293-0.328
	c1.723-0.238,3.434-0.512,5.137-0.871c0.336-0.07,0.688-0.094,1.023-0.176V264c0,8.836-7.16,16-16,16c-8.836,0-16-7.164-16-16
	L168,232z M245.129,240.801c0.59,0.063,1.184,0.102,1.773,0.184c3.074,0.383,6.082,1.031,9.098,1.648v42.871
	c-0.055,19.105,7.539,37.434,21.09,50.902l0.566,0.57c1.5,1.5,2.344,3.535,2.344,5.656v20.566l-22.863-22.078
	c-10.926-10.574-17.109-25.117-17.137-40.32v-60.32C241.711,240.602,243.434,240.61,245.129,240.801z M328,224v39.656
	c-0.176-0.176-0.375-0.328-0.559-0.504c-2.754-2.695-5.609-5.262-8.57-7.703c-0.621-0.512-1.254-1.016-1.887-1.52
	c-3.055-2.449-6.191-4.801-9.449-6.961c-0.215-0.152-0.445-0.281-0.664-0.426c-3.152-2.07-6.398-4-9.703-5.789
	c-0.625-0.348-1.238-0.699-1.863-1.027c-3.391-1.785-6.859-3.418-10.402-4.902c-0.711-0.305-1.422-0.586-2.133-0.871
	c-3.656-1.473-7.363-2.848-11.145-4l-0.375-0.105c-1.602-0.488-3.25-0.918-4.883-1.344c-0.145-0.047-0.246-0.137-0.391-0.176
	c-0.434-0.113-0.871-0.184-1.305-0.289c-1.16-0.297-2.344-0.535-3.52-0.801c-0.559-0.117-1.113-0.262-1.68-0.375
	c-0.383-0.078-0.762-0.184-1.145-0.254l-1.527-0.289c-1.602-0.297-3.199-0.52-4.801-0.762c-1.129-0.168-2.238-0.375-3.367-0.512
	c-0.801-0.094-1.527-0.152-2.297-0.238c-0.77-0.09-1.512-0.137-2.266-0.199l-1.27-0.121c-0.801-0.063-1.602-0.168-2.465-0.223
	C237.602,224.098,234.801,224,232,224h-16v-23.609c0.969-0.48,1.953-0.918,2.895-1.445c0.801-0.457,1.602-1,2.402-1.488
	c1.68-1.031,3.344-2.074,4.934-3.199c0.922-0.664,1.777-1.402,2.656-2.105c1.395-1.113,2.762-2.242,4.066-3.457
	c0.879-0.801,1.703-1.664,2.535-2.52c0.711-0.727,1.48-1.391,2.152-2.145H288C310.066,184.059,327.957,201.934,328,224z
	 M261.703,122.457c1.488,1.457,2.316,3.461,2.297,5.543c0,4.418-3.582,8-8,8v-16C258.16,119.996,260.223,120.883,261.703,122.457z
	 M176,16h16c27.824,0.035,51.418,20.465,55.434,48H120.566C124.582,36.465,148.176,16.035,176,16z M104,128
	c-0.004-2.16,0.887-4.223,2.457-5.703c1.457-1.488,3.461-2.316,5.543-2.297v16C107.582,136,104,132.418,104,128z M40,224
	c0.027-22.082,17.918-39.973,40-40h50.398c0.852,0.953,1.785,1.816,2.684,2.719c0.484,0.488,0.949,1,1.453,1.473
	c2.004,1.906,4.109,3.699,6.313,5.367c0.344,0.258,0.703,0.473,1.047,0.723c1.922,1.391,3.906,2.688,5.953,3.887
	c0.664,0.383,1.336,0.754,2.008,1.121s1.426,0.848,2.168,1.215V224H136c-11.469,0.012-22.895,1.465-34,4.328
	c-3.449,0.879-6.832,1.938-10.184,3.086c-1.023,0.355-2.023,0.738-3.031,1.113c-2.402,0.898-4.801,1.848-7.16,2.879
	c-1.031,0.449-2.059,0.891-3.066,1.371c-2.723,1.262-5.391,2.621-8,4.07c-0.488,0.273-0.992,0.504-1.469,0.801
	c-3.09,1.754-6.102,3.621-9.043,5.598c-0.797,0.539-1.543,1.105-2.32,1.648c-2.164,1.539-4.297,3.137-6.398,4.801
	c-0.879,0.703-1.75,1.41-2.617,2.137c-2.133,1.777-4.199,3.621-6.199,5.535c-0.609,0.57-1.23,1.113-1.832,1.695
	c-0.199,0.203-0.422,0.387-0.625,0.586L40,224z M38.488,289.969c14.34-19.887,34.402-34.922,57.512-43.105v38.633
	c0.039,14.855-5.867,29.113-16.398,39.594l-0.57,0.566c-4.516,4.488-7.051,10.598-7.031,16.969V432H16v-72
	C15.934,334.871,23.805,310.36,38.488,289.969z M16,448h56v16H16V448z M352,464h-56v-16h56V464z"/>
</svg>
